<?xml version="1.0" encoding="utf-8"?>
<!-- Generator: Adobe Illustrator 19.0.0, SVG Export Plug-In . SVG Version: 6.00 Build 0)  -->
<svg version="1.1" id="Ñëîé_1" xmlns="http://www.w3.org/2000/svg" xmlns:xlink="http://www.w3.org/1999/xlink" x="0px" y="0px"
	 viewBox="0 0 500 500" style="enable-background:new 0 0 500 500;" xml:space="preserve">
<style type="text/css">
	.st0{fill:#25448B;}
</style>
<g id="XMLID_1_">
	<path id="XMLID_8_" class="st0" d="M364.2,265.2c1.1,16.8,13.6,26.6,30.1,26.6c11.9,0,28.9-3.5,28.9-19.3
		c0-15.4-15.6-17.7-31.2-20.9c-15.8-3.2-31.4-7.3-31.4-25.9c0-18.1,17.5-23.4,33-23.4c19.3,0,33.7,8.3,33.7,29.1h-6.7
		c-0.2-16.5-11.7-23.2-26.9-23.2c-12.4,0-26.2,4.6-26.2,17.5c0,14.5,15.6,16.8,30.3,20c18.1,3.4,32.3,7.6,32.3,26.8
		c0,19.7-19.7,25.2-35.6,25.2c-20.7,0-36.3-11.2-36.9-32.4L364.2,265.2L364.2,265.2z"/>
	<path id="XMLID_7_" class="st0" d="M325.4,224.7h0.5c3.5-11.9,18.4-21.4,34.9-20.7v6.7c-7.1-0.9-17,0.9-25.2,8.9
		c-6.7,6.9-9.6,12.6-10.3,26.2v49.8h-6.7v-91.1h6.7V224.7z"/>
	<path class="st0" d="M304.2,295.1h-6.7v-17.7h-0.4c-4.3,10.8-16.5,20.2-33.9,20.2c-17.2,0-30.5-6.6-30.5-25.7
		c0-21.3,18.4-25.7,33.5-26.9c30.1-2.1,31.4-4.1,31.4-19c0-4.1-4.6-17.9-25.3-17.9c-16.3,0-27.1,8.5-28,24.3h-6.7
		c0.9-20,13.3-30.1,34.7-30.1c16,0,31.9,5,31.9,23.8V295.1z M297.4,243.8c-5.3,6-19.9,5.3-33,7.1c-16,1.8-25,7.4-25,21.1
		c0,11,8,19.9,23.9,19.9c30.7,0,34-26.2,34-31V243.8L297.4,243.8z"/>
	<path class="st0" d="M154.5,250.9c-0.4,21.4,11,40.9,33.5,40.9c17.2,0,29.4-10.3,32.6-27.1h6.7c-3.5,21.3-17.7,33-39.4,33
		c-26.6,0-40.6-20.9-40.2-46.1c-0.4-25,12.8-49.3,40.2-49.3c28.5,0,41.3,22.5,40.1,48.6H154.5z M221.4,245
		c-0.4-19.1-12.4-36.9-33.3-36.9c-20.2,0-32.1,18.8-33.5,36.9H221.4z"/>
	<path id="XMLID_2_" class="st0" d="M76.7,265.2c1.1,16.8,13.7,26.6,30.1,26.6c11.9,0,28.9-3.5,28.9-19.3
		c0-15.4-15.6-17.7-31.2-20.9c-15.8-3.2-31.4-7.3-31.4-25.9c0-18.1,17.5-23.4,33-23.4c19.3,0,33.7,8.3,33.7,29.1h-6.7
		c-0.2-16.5-11.7-23.2-26.9-23.2c-12.4,0-26.2,4.6-26.2,17.5c0,14.5,15.6,16.8,30.3,20c18.1,3.4,32.3,7.6,32.3,26.8
		c0,19.7-19.7,25.2-35.6,25.2c-20.7,0-36.3-11.2-36.9-32.4H76.7z"/>
</g>
</svg>
